<svg width="65" height="64" viewBox="0 0 65 64" fill="none" xmlns="http://www.w3.org/2000/svg">
<path d="M26.7887 58.6887C22.0655 57.7121 17.6582 55.5336 14.1982 52.4653C5.31571 44.5883 2.57053 32.2141 7.26297 21.2037C8.41531 18.4998 10.2887 15.7558 12.6099 13.3719L14.6563 11.2702L14.8006 23.5714C14.9388 35.3459 14.9699 35.939 15.5277 37.4228C16.6437 40.3911 17.8401 42.2811 19.8996 44.3291C25.2198 49.6194 33.0235 50.9397 39.6574 47.6719C45.8927 44.6003 49.8237 37.9216 49.3669 31.1755C49.06 26.6441 47.5338 23.3212 44.2386 20.0104C41.747 17.507 38.8155 15.8718 35.6239 15.205C32.3767 14.5266 32.5325 14.4275 32.5325 17.1718V19.5411L34.3127 19.8686C41.207 21.137 45.7667 27.8967 44.3296 34.7187C43.8707 36.8975 42.8469 38.8215 41.2036 40.5939C38.7062 43.2873 35.1926 44.5747 32.1246 44.5688C27.0516 44.559 22.8156 41.6806 20.7625 37.4241C20.7625 37.4241 20.2247 36.2075 20.0518 35.4556C19.0354 31.0343 19.6851 21.7269 19.6851 21.7269L19.6064 8.11801L20.411 7.70257C20.8535 7.47407 21.2779 7.28712 21.3541 7.28712C21.4303 7.28712 21.5271 13.5377 21.5691 21.1773C21.5691 21.1773 20.592 31.1917 21.7995 35.0294C21.9737 35.5831 22.3044 36.5302 22.3044 36.5302C23.3629 38.6833 25.0593 40.5773 27.2635 41.6198C28.9367 42.4111 29.7791 42.7693 32.2545 42.7693C33.8718 42.7693 35.3046 42.2595 36.9532 41.5024C38.8967 40.6099 41.1261 38.2437 41.95 36.0832C44.2198 30.1308 41.0592 23.7267 34.9703 21.941C32.4818 21.2112 32.5325 21.171 32.5325 23.8728V26.2328L33.7271 26.5518C38.0328 27.7017 39.3466 33.4641 35.9665 36.425C34.7723 37.4711 33.6962 37.9336 31.8137 37.9336C29.8023 37.9336 27.8715 36.718 26.8789 34.8534C26.2827 33.7334 26.2324 32.6711 26.2324 32.1845C26.2324 27.6901 26.1348 19.607 26.1348 19.607L26.0543 5.74154L26.6725 5.58824C27.0125 5.50392 28.3866 5.29529 29.7261 5.12461C34.2691 4.54576 40.9901 6.03022 45.5054 8.60976C51.6612 12.1266 56.3192 18.1679 58.2585 25.1507C58.9256 27.5527 59 28.2511 59 32.1149C59 35.9615 58.924 36.683 58.271 39.0324C55.6332 48.523 48.9234 55.3074 39.3293 58.1847C37.3102 58.7903 36.3643 58.9058 32.8014 58.9817C29.9261 59.0429 28.0626 58.9521 26.7887 58.6887Z" fill="url(#paint0_linear_107_10061)"/>
<defs>
<linearGradient id="paint0_linear_107_10061" x1="4.95221" y1="34.9531" x2="47.3079" y2="68.2313" gradientUnits="userSpaceOnUse">
<stop stop-color="#765FFE"/>
<stop offset="1" stop-color="#D774E0"/>
</linearGradient>
</defs>
</svg>
