<svg width="36" height="36" viewBox="0 0 36 36" fill="none" xmlns="http://www.w3.org/2000/svg">
<path d="M31.7113 26.2969C30.5948 25.1719 27.8906 23.5301 26.5785 22.8684C24.8699 22.0078 24.7293 21.9375 23.3863 22.9352C22.4906 23.6011 21.895 24.1959 20.8467 23.9723C19.7983 23.7488 17.5202 22.488 15.5254 20.4996C13.5306 18.5112 12.1968 16.167 11.9725 15.1221C11.7482 14.0773 12.3529 13.4888 13.0124 12.5909C13.942 11.3252 13.8717 11.1143 13.0771 9.4057C12.4577 8.0768 10.7681 5.39789 9.63884 4.28695C8.43087 3.09375 8.43087 3.30469 7.65251 3.62813C7.01884 3.89474 6.41091 4.21883 5.83634 4.59633C4.71134 5.34375 4.08696 5.96461 3.65032 6.89766C3.21368 7.8307 3.01751 10.0181 5.27243 14.1145C7.52736 18.2109 9.10939 20.3055 12.3838 23.5709C15.6583 26.8362 18.1762 28.5919 21.857 30.6563C26.4105 33.2065 28.157 32.7094 29.0929 32.2734C30.0288 31.8375 30.6524 31.2188 31.4013 30.0938C31.7797 29.5202 32.1045 28.9129 32.3716 28.2797C32.6957 27.5041 32.9067 27.5041 31.7113 26.2969Z" fill="#735CFF"/>
</svg>
