<svg width="36" height="36" viewBox="0 0 36 36" fill="none" xmlns="http://www.w3.org/2000/svg">
<path d="M31.7109 26.297C30.5943 25.172 27.8901 23.5302 26.578 22.8686C24.8694 22.008 24.7288 21.9377 23.3859 22.9354C22.4901 23.6012 21.8945 24.1961 20.8462 23.9725C19.7978 23.7489 17.5197 22.4882 15.5249 20.4998C13.5301 18.5113 12.1963 16.1671 11.972 15.1223C11.7477 14.0774 12.3524 13.4889 13.0119 12.591C13.9415 11.3254 13.8712 11.1145 13.0766 9.40586C12.4572 8.07695 10.7676 5.39804 9.63835 4.28711C8.43038 3.0939 8.43038 3.30484 7.65202 3.62828C7.01835 3.8949 6.41042 4.21898 5.83585 4.59648C4.71085 5.3439 4.08648 5.96476 3.64984 6.89781C3.2132 7.83086 3.01702 10.0183 5.27195 14.1147C7.52687 18.2111 9.1089 20.3057 12.3834 23.571C15.6578 26.8363 18.1757 28.592 21.8566 30.6564C26.41 33.2066 28.1566 32.7095 29.0924 32.2736C30.0283 31.8377 30.6519 31.2189 31.4008 30.0939C31.7792 29.5203 32.1041 28.9131 32.3711 28.2798C32.6952 27.5043 32.9062 27.5043 31.7109 26.297Z" fill="#EDA1F5"/>
</svg>
