<svg width="24" height="24" viewBox="0 0 24 24" fill="none" xmlns="http://www.w3.org/2000/svg">
<path d="M21.1404 17.5313C20.396 16.7813 18.5932 15.6867 17.7185 15.2456C16.5795 14.6719 16.4857 14.625 15.5904 15.2902C14.9932 15.7341 14.5962 16.1306 13.8973 15.9816C13.1984 15.8325 11.6796 14.992 10.3498 13.6664C9.01994 12.3408 8.13072 10.778 7.98119 10.0814C7.83166 9.38485 8.23478 8.9925 8.67447 8.39391C9.29415 7.55016 9.24728 7.40953 8.71759 6.27047C8.30462 5.38453 7.17822 3.59859 6.42541 2.85797C5.62009 2.0625 5.62009 2.20313 5.10119 2.41875C4.67874 2.5965 4.27345 2.81255 3.89041 3.06422C3.14041 3.5625 2.72416 3.97641 2.43306 4.59844C2.14197 5.22047 2.01119 6.67875 3.51447 9.40969C5.01775 12.1406 6.07244 13.537 8.2554 15.7139C10.4384 17.8908 12.117 19.0613 14.5709 20.4375C17.6065 22.1377 18.7709 21.8063 19.3948 21.5156C20.0187 21.225 20.4345 20.8125 20.9337 20.0625C21.186 19.6801 21.4025 19.2753 21.5806 18.8531C21.7967 18.3361 21.9373 18.3361 21.1404 17.5313Z" stroke="white" stroke-width="2" stroke-miterlimit="10"/>
</svg>
