<svg width="40" height="40" viewBox="0 0 40 40" fill="none" xmlns="http://www.w3.org/2000/svg">
<path d="M14.2852 37C14.9952 37 15.5708 36.4098 15.5708 35.6818C15.5708 34.9538 14.9952 34.3636 14.2852 34.3636C13.5751 34.3636 12.9995 34.9538 12.9995 35.6818C12.9995 36.4098 13.5751 37 14.2852 37Z"  stroke-width="2" stroke-linecap="round" stroke-linejoin="round"/>
<path d="M32.2842 37C32.9942 37 33.5698 36.4098 33.5698 35.6818C33.5698 34.9538 32.9942 34.3636 32.2842 34.3636C31.5741 34.3636 30.9985 34.9538 30.9985 35.6818C30.9985 36.4098 31.5741 37 32.2842 37Z"  stroke-width="2" stroke-linecap="round" stroke-linejoin="round"/>
<path d="M4 8H9.14256L12.9995 30.4091H33.5697" stroke-width="2" stroke-linecap="round" stroke-linejoin="round"/>
<path d="M12.9995 25.1364H33.0426C33.1913 25.1365 33.3354 25.0838 33.4504 24.9872C33.5654 24.8906 33.6442 24.7561 33.6734 24.6066L35.9875 12.743C36.0062 12.6473 36.004 12.5486 35.9809 12.454C35.9578 12.3593 35.9146 12.2711 35.8542 12.1957C35.7939 12.1202 35.718 12.0595 35.6319 12.0178C35.5459 11.9761 35.4519 11.9545 35.3568 11.9546H10.4282" stroke="white" stroke-width="2" stroke-linecap="round" stroke-linejoin="round"/>
</svg>
