<svg width="61" height="60" viewBox="0 0 61 60" fill="none" xmlns="http://www.w3.org/2000/svg">
<path d="M47.7606 2H31.5419L41.862 16.0325L47.7606 2ZM13.362 2L19.2606 16.0325L29.5806 2H13.362ZM30.5613 7.33375L22.7161 18H38.4065L30.5613 7.33375ZM51.0261 4.3825L45.3028 18H59L51.0261 4.3825ZM10.0965 4.3825L2 18H15.8197L10.0965 4.3825ZM17.1608 22H2.12258L29.4335 58H29.4985L17.1608 22ZM43.9618 22L31.6241 58H31.689L59 22H43.9618ZM39.5575 22H21.5651L30.5613 48L39.5575 22Z" fill="url(#paint0_linear_130_17396)"/>
<defs>
<linearGradient id="paint0_linear_130_17396" x1="1.94956" y1="33.0625" x2="46.0518" y2="68.3317" gradientUnits="userSpaceOnUse">
<stop stop-color="#765FFE"/>
<stop offset="1" stop-color="#D774E0"/>
</linearGradient>
</defs>
</svg>
