<svg width="33" height="32" viewBox="0 0 33 32" fill="none" xmlns="http://www.w3.org/2000/svg">
<path d="M2.6665 16C2.6665 12.287 4.1415 8.72601 6.76701 6.1005C9.39252 3.475 12.9535 2 16.6665 2C20.3795 2 23.9405 3.475 26.566 6.1005C29.1915 8.72601 30.6665 12.287 30.6665 16C30.6665 19.713 29.1915 23.274 26.566 25.8995C23.9405 28.525 20.3795 30 16.6665 30C12.9535 30 9.39252 28.525 6.76701 25.8995C4.1415 23.274 2.6665 19.713 2.6665 16Z" stroke="#735CFF" stroke-width="2" stroke-linejoin="round"/>
<path d="M14.8833 30L25.0166 20.6149L22.6665 28.5M7.6665 26.3377L19.8889 15.0154L12.9027 16.7268C12.4403 16.8415 11.9598 16.8621 11.4894 16.7875C11.019 16.7129 10.568 16.5446 10.1627 16.2923C9.75736 16.0399 9.40588 15.7087 9.12871 15.3179C8.85153 14.9271 8.65421 14.4845 8.54825 14.016C8.33344 13.0625 8.49809 12.0621 9.00676 11.23C9.51542 10.3978 10.3275 9.80047 11.2681 9.56646L25.8101 6" stroke="#735CFF" stroke-width="2" stroke-linejoin="round"/>
</svg>
