<svg width="60" height="60" viewBox="0 0 60 60" fill="none" xmlns="http://www.w3.org/2000/svg">
<g clip-path="url(#clip0_107_10186)">
<path fill-rule="evenodd" clip-rule="evenodd" d="M30 0C46.5575 0 60 13.4425 60 30C60 46.5575 46.5575 60 30 60C13.4425 60 0 46.5575 0 30C0 13.4425 13.4425 0 30 0ZM36.3925 40H23.605C24.97 46.15 27.2075 50.285 30 54.36C32.985 50.0075 35.1025 45.835 36.3925 40ZM18.5 40H7.0825C10.1725 47.0625 16.3425 52.43 23.97 54.29C21.35 49.9575 19.5125 45.145 18.5 40ZM52.9175 40H41.5C40.5225 44.97 38.7625 49.7175 36.0625 54.235C43.5925 52.3275 49.855 46.9975 52.9175 40ZM17.905 25H5.5C4.8325 28.2825 4.8325 31.7125 5.5 35H17.7875C17.49 31.6775 17.535 28.32 17.905 25ZM37.0575 25H22.94C22.5275 28.315 22.4775 31.68 22.8075 35H37.19C37.5225 31.68 37.4675 28.3175 37.0575 25ZM54.5 25H42.0925C42.4625 28.32 42.5075 31.6775 42.2125 35H54.5C55.15 31.7875 55.1825 28.38 54.5 25ZM24.11 5.6775C16.4175 7.5075 10.1925 12.8925 7.0825 20H18.715C19.8025 14.895 21.66 10.0375 24.11 5.6775ZM29.9975 5.5575C27.275 9.9825 25.2225 14.19 23.84 20H36.1575C34.8225 14.385 32.815 10.13 29.9975 5.5575ZM35.9175 5.73C38.45 10.26 40.25 15.13 41.2825 20H52.9175C49.8375 12.96 43.5125 7.605 35.9175 5.73Z" fill="url(#paint0_linear_107_10186)"/>
</g>
<defs>
<linearGradient id="paint0_linear_107_10186" x1="-0.0530945" y1="33.2813" x2="47.0088" y2="70.257" gradientUnits="userSpaceOnUse">
<stop stop-color="#765FFE"/>
<stop offset="1" stop-color="#D774E0"/>
</linearGradient>
<clipPath id="clip0_107_10186">
<rect width="60" height="60" fill="white"/>
</clipPath>
</defs>
</svg>
