<svg width="61" height="60" viewBox="0 0 61 60" fill="none" xmlns="http://www.w3.org/2000/svg">
<g clip-path="url(#clip0_130_17412)">
<path fill-rule="evenodd" clip-rule="evenodd" d="M60.5 49.9996H53V59.9996L39.6675 49.9996H20.5V39.9996H25.5V44.9996H41.3325L48 49.9996V44.9996H55.5V24.9971H50.5V19.9971H60.5V49.9996ZM45.5 34.9996H21.3325L8 44.9996V34.9996H0.5V-0.00292969H45.5V34.9996ZM13 14.9996C14.38 14.9996 15.5 16.1196 15.5 17.4996C15.5 18.8796 14.38 19.9996 13 19.9996C11.62 19.9996 10.5 18.8796 10.5 17.4996C10.5 16.1196 11.62 14.9996 13 14.9996ZM23 14.9996C24.38 14.9996 25.5 16.1196 25.5 17.4996C25.5 18.8796 24.38 19.9996 23 19.9996C21.62 19.9996 20.5 18.8796 20.5 17.4996C20.5 16.1196 21.62 14.9996 23 14.9996ZM33 14.9996C34.38 14.9996 35.5 16.1196 35.5 17.4996C35.5 18.8796 34.38 19.9996 33 19.9996C31.62 19.9996 30.5 18.8796 30.5 17.4996C30.5 16.1196 31.62 14.9996 33 14.9996Z" fill="url(#paint0_linear_130_17412)"/>
</g>
<defs>
<linearGradient id="paint0_linear_130_17412" x1="0.446906" y1="33.2797" x2="47.5103" y2="70.2551" gradientUnits="userSpaceOnUse">
<stop stop-color="#765FFE"/>
<stop offset="1" stop-color="#D774E0"/>
</linearGradient>
<clipPath id="clip0_130_17412">
<rect width="60" height="60" fill="white" transform="translate(0.5)"/>
</clipPath>
</defs>
</svg>
