<svg width="60" height="60" viewBox="0 0 60 60" fill="none" xmlns="http://www.w3.org/2000/svg">
<path d="M21.53 5L25.405 8.87L14.845 19.17L38.0725 42.3975L48.6275 32.0975L52.5 35.97V5H21.53ZM40 22.5C37.24 22.5 35 20.26 35 17.5C35 14.74 37.24 12.5 40 12.5C42.76 12.5 45 14.74 45 17.5C45 20.26 42.76 22.5 40 22.5ZM29.3225 40.6775L25 45H20V50H15V55H0V51.7675L17.0325 34.48L15.39 32.8525L0 48.2325V42.5L15.5475 26.9925L29.3225 40.6775ZM56.77 13.23L55 15V22.7425L60 17.58L56.77 13.23Z" fill="url(#paint0_linear_130_17406)"/>
<defs>
<linearGradient id="paint0_linear_130_17406" x1="-0.0530945" y1="32.7344" x2="40.2417" y2="70.7251" gradientUnits="userSpaceOnUse">
<stop stop-color="#765FFE"/>
<stop offset="1" stop-color="#D774E0"/>
</linearGradient>
</defs>
</svg>
