<svg width="33" height="32" viewBox="0 0 33 32" fill="none" xmlns="http://www.w3.org/2000/svg">
<path d="M20.3896 1.06697L6 19.2143H14.4L12.3322 30.8145C12.3282 30.8373 12.3292 30.8606 12.3351 30.883C12.341 30.9053 12.3516 30.926 12.3662 30.9437C12.3807 30.9614 12.3989 30.9756 12.4195 30.9853C12.44 30.995 12.4624 31.0001 12.4851 31C12.5092 31 12.5329 30.9942 12.5545 30.9832C12.576 30.9721 12.5947 30.9561 12.6091 30.9364L27 12.7857H18.6L20.6777 1.18415C20.6805 1.16104 20.6784 1.13758 20.6716 1.11535C20.6649 1.09311 20.6535 1.0726 20.6384 1.05518C20.6232 1.03776 20.6046 1.02383 20.5838 1.01431C20.563 1.0048 20.5404 0.999921 20.5176 1C20.4926 1.0001 20.468 1.00622 20.4457 1.01786C20.4235 1.02949 20.4043 1.04632 20.3896 1.06697Z" stroke="#EDA1F5" stroke-width="2" stroke-linecap="round" stroke-linejoin="round"/>
</svg>
