<svg width="60" height="60" viewBox="0 0 60 60" fill="none" xmlns="http://www.w3.org/2000/svg">
<path d="M32.2759 3L0 35.2759L19.7241 55L52 22.7241V3H32.2759ZM41.2414 17.3448C40.5321 17.3448 39.8387 17.1345 39.249 16.7404C38.6592 16.3464 38.1996 15.7863 37.9282 15.131C37.6567 14.4757 37.5857 13.7546 37.7241 13.059C37.8625 12.3633 38.204 11.7243 38.7055 11.2228C39.2071 10.7212 39.8461 10.3797 40.5417 10.2413C41.2374 10.1029 41.9585 10.174 42.6138 10.4454C43.2691 10.7168 43.8291 11.1765 44.2232 11.7662C44.6173 12.356 44.8276 13.0493 44.8276 13.7586C44.8276 14.7097 44.4498 15.6219 43.7772 16.2945C43.1047 16.967 42.1925 17.3448 41.2414 17.3448Z" fill="url(#paint0_linear_130_17401)"/>
<path d="M56.3131 9V25.3333L26 55.1757L28.8919 58L60 27.1481V9H56.3131Z" fill="url(#paint1_linear_130_17401)"/>
<defs>
<linearGradient id="paint0_linear_130_17401" x1="-0.0460152" y1="31.8438" x2="40.741" y2="63.8894" gradientUnits="userSpaceOnUse">
<stop stop-color="#765FFE"/>
<stop offset="1" stop-color="#D774E0"/>
</linearGradient>
<linearGradient id="paint1_linear_130_17401" x1="25.9699" y1="36.1797" x2="59.2189" y2="54.306" gradientUnits="userSpaceOnUse">
<stop stop-color="#765FFE"/>
<stop offset="1" stop-color="#D774E0"/>
</linearGradient>
</defs>
</svg>
