<svg width="88" height="88" viewBox="0 0 88 88" fill="none" xmlns="http://www.w3.org/2000/svg">
<path d="M83.0642 10C84.7904 10 86 11.3303 86 12.8178C86 13.8718 85.391 15.0065 83.9126 15.8012C76.403 19.8302 67.709 33.7617 67.709 42.3553C80.3762 41.9643 85.8782 53.3288 85.8782 60.4518C85.8782 68.9815 78.5786 78 67.7846 78C54.1766 78 47.4986 67.1753 47.4986 55.4452C47.4986 30.0302 76.2014 10 83.0642 10ZM37.5656 10C39.2876 10 40.5014 11.3303 40.5014 12.8178C40.5014 13.8718 39.8924 15.0065 38.414 15.8012C30.9044 19.8302 22.2104 33.7617 22.2104 42.3553C34.8776 41.9643 40.3796 53.3288 40.3796 60.4518C40.3796 68.9815 33.0758 78 22.286 78C8.6738 78 2 67.1753 2 55.4452C2 30.0302 30.6986 10 37.5656 10Z" fill="url(#paint0_linear_107_10161)"/>
<defs>
<linearGradient id="paint0_linear_107_10161" x1="1.92567" y1="47.7188" x2="56.7971" y2="100.974" gradientUnits="userSpaceOnUse">
<stop stop-color="#765FFE"/>
<stop offset="1" stop-color="#D774E0"/>
</linearGradient>
</defs>
</svg>
