<svg width="33" height="32" viewBox="0 0 33 32" fill="none" xmlns="http://www.w3.org/2000/svg">
<path d="M16.7265 12.0194C15.9058 11.9383 15.0801 12.1129 14.3625 12.5193C13.6449 12.9256 13.0704 13.5438 12.7177 14.2893C12.365 15.0348 12.2513 15.871 12.3922 16.6836C12.5332 17.4962 12.9218 18.2453 13.505 18.8284C14.0881 19.4116 14.8373 19.8002 15.6498 19.9412C16.4624 20.0821 17.2986 19.9684 18.0441 19.6157C18.7896 19.263 19.4078 18.6885 19.8141 17.9709C20.2205 17.2533 20.3951 16.4276 20.314 15.6069C20.2216 14.6869 19.814 13.8271 19.1601 13.1733C18.5063 12.5194 17.6466 12.1118 16.7265 12.0194ZM26.3578 16C26.3552 16.4348 26.3233 16.8689 26.2622 17.2994L29.0878 19.5156C29.2108 19.6176 29.2937 19.7599 29.3218 19.9173C29.3498 20.0746 29.3211 20.2368 29.2409 20.375L26.5678 25C26.4866 25.1369 26.3597 25.2407 26.2095 25.2932C26.0592 25.3457 25.8953 25.3434 25.7465 25.2869L22.9403 24.1569C22.7855 24.0953 22.6179 24.073 22.4524 24.0921C22.287 24.1112 22.1288 24.171 21.9922 24.2663C21.5639 24.5612 21.1138 24.8232 20.6459 25.05C20.4988 25.1215 20.3716 25.2281 20.2754 25.3605C20.1793 25.4928 20.1172 25.6467 20.0947 25.8088L19.674 28.8019C19.6464 28.9599 19.5647 29.1035 19.443 29.2081C19.3212 29.3126 19.167 29.3716 19.0065 29.375H13.6603C13.5025 29.3723 13.3503 29.3159 13.2289 29.2151C13.1075 29.1143 13.024 28.9752 12.9922 28.8206L12.5722 25.8319C12.5486 25.6681 12.4849 25.5127 12.3867 25.3794C12.2886 25.2462 12.1591 25.1392 12.0097 25.0681C11.5423 24.8425 11.0938 24.5798 10.6684 24.2825C10.5322 24.1877 10.3746 24.1284 10.2097 24.1097C10.0449 24.091 9.87796 24.1137 9.72403 24.1756L6.91841 25.305C6.76973 25.3616 6.60583 25.364 6.4556 25.3116C6.30537 25.2592 6.17843 25.1555 6.09716 25.0187L3.42403 20.3937C3.34367 20.2556 3.31495 20.0934 3.34299 19.936C3.37103 19.7786 3.45401 19.6363 3.57716 19.5344L5.96528 17.6594C6.09612 17.5555 6.19895 17.4206 6.26443 17.267C6.32992 17.1133 6.35599 16.9457 6.34028 16.7794C6.31778 16.5188 6.30403 16.2588 6.30403 15.9981C6.30403 15.7375 6.31716 15.4812 6.34028 15.2262C6.35427 15.061 6.32692 14.8948 6.2607 14.7427C6.19447 14.5906 6.09145 14.4574 5.96091 14.355L3.57403 12.48C3.45288 12.3776 3.37165 12.2357 3.34457 12.0794C3.31748 11.9231 3.34628 11.7622 3.42591 11.625L6.09903 7C6.18021 6.86312 6.3071 6.75929 6.45735 6.7068C6.60759 6.65432 6.77153 6.65656 6.92028 6.71313L9.72653 7.84312C9.88129 7.90474 10.0489 7.927 10.2144 7.90791C10.3798 7.88883 10.538 7.82898 10.6747 7.73375C11.1029 7.43883 11.553 7.17682 12.0209 6.95C12.168 6.8785 12.2953 6.77188 12.3914 6.63955C12.4875 6.50722 12.5496 6.35326 12.5722 6.19125L12.9928 3.19812C13.0204 3.04005 13.1021 2.89648 13.2238 2.79194C13.3456 2.68741 13.4998 2.6284 13.6603 2.625H19.0065C19.1643 2.62773 19.3165 2.68413 19.4379 2.7849C19.5594 2.88567 19.6429 3.0248 19.6747 3.17937L20.0947 6.16813C20.1182 6.33192 20.1819 6.48734 20.2801 6.62059C20.3782 6.75383 20.5077 6.86076 20.6572 6.93188C21.1245 7.15747 21.573 7.42019 21.9984 7.7175C22.1346 7.81226 22.2922 7.87164 22.4571 7.8903C22.6219 7.90896 22.7889 7.8863 22.9428 7.82438L25.7484 6.695C25.8971 6.63838 26.061 6.63605 26.2112 6.68841C26.3614 6.74078 26.4884 6.84448 26.5697 6.98125L29.2428 11.6062C29.3231 11.7444 29.3519 11.9066 29.3238 12.064C29.2958 12.2214 29.2128 12.3637 29.0897 12.4656L26.7015 14.3406C26.5701 14.4441 26.4667 14.5789 26.4007 14.7326C26.3346 14.8863 26.3081 15.054 26.3234 15.2206C26.344 15.4794 26.3578 15.7394 26.3578 16Z" stroke="#735CFF" stroke-width="2" stroke-linecap="round" stroke-linejoin="round"/>
</svg>
