<svg width="33" height="32" viewBox="0 0 33 32" fill="none" xmlns="http://www.w3.org/2000/svg">
<path d="M7.6665 20C7.6665 14.1875 15.4165 9.6875 13.6665 3C17.7915 3 25.6665 9 25.6665 20C25.6665 22.3869 24.7183 24.6761 23.0305 26.364C21.3426 28.0518 19.0535 29 16.6665 29C14.2796 29 11.9904 28.0518 10.3025 26.364C8.61472 24.6761 7.6665 22.3869 7.6665 20Z" stroke="#735CFF" stroke-width="2" stroke-linecap="round" stroke-linejoin="round"/>
<path d="M20.6665 23C20.6665 26.6069 18.6665 28 16.6665 28C14.6665 28 12.6665 26.6069 12.6665 23C12.6665 19.3931 15.1665 17.625 14.6665 15C17.2915 15 20.6665 19.3931 20.6665 23Z" stroke="#735CFF" stroke-width="2" stroke-linecap="round" stroke-linejoin="round"/>
</svg>
