<svg width="32" height="32" viewBox="0 0 32 32" fill="none" xmlns="http://www.w3.org/2000/svg">
<path d="M1.77794 15.4521C1.77794 15.4521 14.6039 10.1836 19.0522 8.32846C20.7575 7.58646 26.5402 5.21186 26.5402 5.21186C26.5402 5.21186 29.2093 4.17306 28.9868 6.69596C28.9126 7.73486 28.3196 11.3708 27.7265 15.3037C26.8368 20.869 25.873 26.9537 25.873 26.9537C25.873 26.9537 25.7247 28.6605 24.4644 28.9573C23.204 29.2541 21.1281 27.9185 20.7575 27.6216C20.4608 27.399 15.197 24.0598 13.2694 22.4273C12.7504 21.9821 12.1574 21.0917 13.3435 20.0528C16.0126 17.604 19.2005 14.5617 21.1281 12.6324C22.0178 11.7419 22.9074 9.66416 19.2005 12.1871C13.9367 15.8231 8.74698 19.2365 8.74698 19.2365C8.74698 19.2365 7.56073 19.9785 5.33659 19.3107C3.11236 18.6429 0.517503 17.7524 0.517503 17.7524C0.517503 17.7524 -1.26172 16.6394 1.77794 15.4521V15.4521Z" fill="white"/>
</svg>
