<svg width="25" height="24" viewBox="0 0 25 24" fill="none" xmlns="http://www.w3.org/2000/svg">
<path d="M14.8668 6.3C14.6836 6.48693 14.581 6.73825 14.581 7C14.581 7.26175 14.6836 7.51307 14.8668 7.7L16.4668 9.3C16.6538 9.48323 16.9051 9.58586 17.1668 9.58586C17.4286 9.58586 17.6799 9.48323 17.8668 9.3L21.6368 5.53C22.1397 6.64119 22.2919 7.87923 22.0733 9.07915C21.8547 10.2791 21.2756 11.3838 20.4131 12.2463C19.5507 13.1087 18.4459 13.6878 17.246 13.9065C16.0461 14.1251 14.808 13.9728 13.6968 13.47L6.78685 20.38C6.38902 20.7778 5.84946 21.0013 5.28685 21.0013C4.72424 21.0013 4.18467 20.7778 3.78685 20.38C3.38902 19.9822 3.16553 19.4426 3.16553 18.88C3.16553 18.3174 3.38902 17.7778 3.78685 17.38L10.6968 10.47C10.194 9.35881 10.0418 8.12077 10.2604 6.92085C10.479 5.72094 11.0581 4.61616 11.9206 3.75372C12.783 2.89129 13.8878 2.31217 15.0877 2.09354C16.2876 1.87492 17.5257 2.02716 18.6368 2.53L14.8768 6.29L14.8668 6.3Z" stroke="white" stroke-width="2" stroke-linecap="round" stroke-linejoin="round"/>
</svg>
