<svg width="32" height="32" viewBox="0 0 32 32" fill="none" xmlns="http://www.w3.org/2000/svg">
<path fill-rule="evenodd" clip-rule="evenodd" d="M25.9206 6.0688C24.6263 4.77385 23.0886 3.74769 21.3961 3.04941C19.7035 2.35112 17.8896 1.9945 16.0587 2.00006C8.37499 2.00006 2.12 8.2238 2.11687 15.875C2.11348 18.3114 2.75568 20.7051 3.97812 22.8125L2 30L9.39061 28.0706C11.4364 29.1789 13.7264 29.7589 16.0531 29.7581H16.0587C23.7418 29.7581 29.9962 23.5338 30 15.8832C30.0046 14.0585 29.6463 12.2512 28.946 10.5663C28.2457 8.88135 27.2173 7.35255 25.9206 6.0688ZM16.0587 27.4163H16.0537C13.9796 27.4169 11.9432 26.8618 10.1562 25.8088L9.73311 25.5588L5.34749 26.7038L6.51812 22.4481L6.24249 22.0106C5.08274 20.1745 4.46828 18.0468 4.47062 15.875C4.47062 9.51692 9.67124 4.34381 16.0631 4.34381C19.1293 4.33833 22.0722 5.55101 24.2444 7.71513C26.4166 9.87924 27.6402 12.8175 27.6462 15.8838C27.6437 22.2425 22.4456 27.4163 16.0587 27.4163ZM22.4143 18.7794C22.0662 18.6057 20.3518 17.7669 20.0343 17.6513C19.7168 17.5357 19.4825 17.4775 19.2506 17.825C19.0187 18.1725 18.3506 18.95 18.1475 19.1844C17.9443 19.4188 17.7412 19.4444 17.3931 19.2706C17.045 19.0969 15.9219 18.7313 14.5912 17.55C13.5556 16.6307 12.8569 15.4957 12.6537 15.1488C12.4506 14.8019 12.6319 14.6138 12.8062 14.4413C12.9631 14.2857 13.1544 14.0363 13.3287 13.8338C13.5031 13.6313 13.5612 13.4863 13.6769 13.255C13.7925 13.0238 13.735 12.8213 13.6481 12.6482C13.5612 12.475 12.8644 10.7682 12.5744 10.0738C12.2912 9.39755 12.0044 9.48942 11.7906 9.4788C11.5875 9.4688 11.3531 9.4663 11.1225 9.4663C10.9462 9.47089 10.7727 9.51177 10.6129 9.5864C10.4531 9.66103 10.3104 9.7678 10.1937 9.90005C9.87436 10.2475 8.97436 11.0875 8.97436 12.7925C8.97436 14.4975 10.2244 16.1475 10.3969 16.3788C10.5694 16.61 12.8531 20.1119 16.3475 21.6138C16.9963 21.8916 17.6593 22.1353 18.3337 22.3438C19.1681 22.6075 19.9275 22.5706 20.5275 22.4813C21.1968 22.3819 22.59 21.6425 22.8793 20.8325C23.1687 20.0225 23.1693 19.3288 23.0825 19.1844C22.9956 19.04 22.7631 18.9525 22.4143 18.7794Z" fill="white"/>
</svg>
